<?xml version="1.0" encoding="UTF-8" standalone="no"?>
<svg
   xmlns:dc="http://purl.org/dc/elements/1.1/"
   xmlns:cc="http://creativecommons.org/ns#"
   xmlns:rdf="http://www.w3.org/1999/02/22-rdf-syntax-ns#"
   xmlns:svg="http://www.w3.org/2000/svg"
   xmlns="http://www.w3.org/2000/svg"
   viewBox="0 0 153.67599 104.82227"
   height="104.82227"
   width="153.67599"
   xml:space="preserve"
   id="svg2"
   version="1.1"><metadata
     id="metadata8"><rdf:RDF><cc:Work
         rdf:about=""><dc:format>image/svg+xml</dc:format><dc:type
           rdf:resource="http://purl.org/dc/dcmitype/StillImage" /><dc:title></dc:title></cc:Work></rdf:RDF></metadata><defs
     id="defs6"><clipPath
       id="clipPath18"
       clipPathUnits="userSpaceOnUse"><path
         id="path16"
         d="M 0,78.617 H 115.257 V 0 H 0 Z" /></clipPath></defs><g
     transform="matrix(1.3333333,0,0,-1.3333333,0,104.82227)"
     id="g10"><g
       id="g12"><g
         transform="matrix(1.5722898,0,0,1.5142566,-40.459119,-17.042546)"
         clip-path="url(#clipPath18)"
         id="g14"><g
           transform="translate(36.1544,43.172)"
           id="g20"><path
             id="path22"
             style="fill:#e5133b;fill-opacity:1;fill-rule:nonzero;stroke:none"
             d="M 0,0 C 0,-1.25 -0.609,-1.875 -1.826,-1.875 H -5.4 c -0.188,0 -0.28,0.093 -0.28,0.279 v 12.475 c 0,0.168 0.092,0.254 0.28,0.254 h 3.574 C -0.609,11.133 0,11.047 0,9.797 Z m 1.432,12.26 c -0.703,0.685 -1.67,1.028 -2.903,1.028 h -6.237 c -0.288,0 -0.432,-0.143 -0.432,-0.433 V -3.601 c 0,-0.286 0.144,-0.429 0.432,-0.429 h 6.237 c 1.233,0 2.2,0.345 2.903,1.039 0.7,0.692 1.052,1.657 1.052,2.891 v 9.996 c 0,1.25 -0.352,1.68 -1.052,2.364" /></g><g
           transform="translate(42.9727,52.0704)"
           id="g24"><path
             id="path26"
             style="fill:#e5133b;fill-opacity:1;fill-rule:nonzero;stroke:none"
             d="m 0,0 h -1.623 c -0.27,0 -0.404,-0.143 -0.404,-0.43 v -12.069 c 0,-0.286 0.143,-0.43 0.429,-0.43 h 1.623 c 0.153,0 0.258,0.031 0.319,0.089 0.057,0.06 0.088,0.173 0.088,0.341 V -0.43 C 0.432,-0.143 0.288,0 0,0" /></g><g
           transform="translate(42.9981,56.4005)"
           id="g28"><path
             id="path30"
             style="fill:#e5133b;fill-opacity:1;fill-rule:nonzero;stroke:none"
             d="m 0,0 h -1.648 c -0.27,0 -0.405,-0.136 -0.405,-0.406 v -1.77 c 0,-0.285 0.135,-0.429 0.405,-0.429 H 0 c 0.27,0 0.406,0.144 0.406,0.429 v 1.77 C 0.406,-0.136 0.27,0 0,0" /></g><g
           transform="translate(53.0889,44.086)"
           id="g32"><path
             id="path34"
             style="fill:#e5133b;fill-opacity:1;fill-rule:nonzero;stroke:none"
             d="m 0,0 c 0,-1.421 -0.692,-2.131 -2.079,-2.131 h -1.217 c -1.199,0 -1.8,0.626 -1.8,1.876 v 4.21 c 0,1.25 0.601,1.875 1.8,1.875 h 3.018 C -0.092,5.83 0,5.746 0,5.578 Z M 2.028,7.984 H -3.651 C -4.886,7.984 -5.849,7.644 -6.54,6.96 -7.233,6.275 -7.581,5.307 -7.581,4.057 V -0.38 c 0,-1.253 0.326,-2.221 0.976,-2.905 0.651,-0.684 1.585,-1.025 2.801,-1.025 h 1.141 c 1.285,0 2.14,0.456 2.562,1.369 H 0 v -1.928 c 0,-1.25 -0.617,-1.875 -1.851,-1.875 h -4.386 c -0.287,0 -0.43,-0.144 -0.43,-0.433 v -1.318 c 0,-0.27 0.143,-0.404 0.43,-0.404 h 4.767 c 1.233,0 2.201,0.34 2.904,1.025 0.7,0.687 1.051,1.645 1.051,2.878 V 7.555 c 0,0.287 -0.152,0.429 -0.457,0.429" /></g><g
           transform="translate(59.9092,56.4005)"
           id="g36"><path
             id="path38"
             style="fill:#e5133b;fill-opacity:1;fill-rule:nonzero;stroke:none"
             d="m 0,0 h -1.647 c -0.272,0 -0.407,-0.136 -0.407,-0.406 v -1.77 c 0,-0.285 0.135,-0.429 0.407,-0.429 H 0 c 0.27,0 0.405,0.144 0.405,0.429 v 1.77 C 0.405,-0.136 0.27,0 0,0" /></g><g
           transform="translate(59.8838,52.0704)"
           id="g40"><path
             id="path42"
             style="fill:#e5133b;fill-opacity:1;fill-rule:nonzero;stroke:none"
             d="m 0,0 h -1.622 c -0.271,0 -0.406,-0.143 -0.406,-0.43 v -12.069 c 0,-0.286 0.143,-0.43 0.43,-0.43 h 1.623 c 0.153,0 0.257,0.031 0.316,0.089 0.06,0.06 0.09,0.173 0.09,0.341 V -0.43 C 0.431,-0.143 0.286,0 0,0" /></g><g
           transform="translate(68.6309,41.297)"
           id="g44"><path
             id="path46"
             style="fill:#e5133b;fill-opacity:1;fill-rule:nonzero;stroke:none"
             d="m 0,0 h -0.989 c -1.269,0 -1.903,0.615 -1.903,1.85 v 6.517 c 0,0.168 0.094,0.252 0.28,0.252 h 2.358 c 0.304,0 0.456,0.137 0.456,0.406 v 1.319 c 0,0.287 -0.152,0.429 -0.456,0.429 h -2.358 c -0.186,0 -0.28,0.086 -0.28,0.255 v 3.63 c 0,0.289 -0.142,0.432 -0.429,0.432 h -1.598 c -0.304,0 -0.457,-0.143 -0.457,-0.432 v -3.63 c 0,-0.169 -0.084,-0.255 -0.253,-0.255 h -1.217 c -0.287,0 -0.429,-0.142 -0.429,-0.429 V 9.025 c 0,-0.151 0.028,-0.257 0.087,-0.317 0.06,-0.06 0.173,-0.089 0.342,-0.089 h 1.217 c 0.169,0 0.253,-0.084 0.253,-0.252 V 1.723 c 0,-1.235 0.356,-2.19 1.065,-2.864 0.71,-0.678 1.69,-1.014 2.941,-1.014 H 0 c 0.305,0 0.457,0.134 0.457,0.405 v 1.318 C 0.457,-0.145 0.305,0 0,0" /></g><g
           transform="translate(77.834,43.4513)"
           id="g48"><path
             id="path50"
             style="fill:#e5133b;fill-opacity:1;fill-rule:nonzero;stroke:none"
             d="m 0,0 c 0,-1.437 -0.693,-2.154 -2.08,-2.154 h -1.215 c -1.219,0 -1.826,0.625 -1.826,1.875 V 4.59 c 0,1.25 0.607,1.875 1.826,1.875 h 3.016 C -0.093,6.465 0,6.381 0,6.213 Z M 2.027,8.619 H -3.65 C -4.901,8.619 -5.869,8.278 -6.555,7.595 -7.239,6.91 -7.58,5.941 -7.58,4.691 v -5.07 c 0,-1.234 0.341,-2.199 1.025,-2.892 0.686,-0.693 1.654,-1.039 2.905,-1.039 h 0.988 c 1.301,0 2.155,0.449 2.56,1.344 H 0 V -3.88 c 0,-0.286 0.144,-0.43 0.432,-0.43 h 1.595 c 0.305,0 0.457,0.144 0.457,0.43 V 8.189 c 0,0.288 -0.152,0.43 -0.457,0.43" /></g><g
           transform="translate(84.628,56.4259)"
           id="g52"><path
             id="path54"
             style="fill:#e5133b;fill-opacity:1;fill-rule:nonzero;stroke:none"
             d="m 0,0 h -1.597 c -0.287,0 -0.431,-0.145 -0.431,-0.432 v -16.422 c 0,-0.287 0.144,-0.43 0.431,-0.43 H 0 c 0.288,0 0.433,0.143 0.433,0.43 V -0.432 C 0.433,-0.145 0.288,0 0,0" /></g><g
           transform="translate(37.7872,36.2101)"
           id="g56"><path
             id="path58"
             style="fill:#222222;fill-opacity:1;fill-rule:nonzero;stroke:none"
             d="m 0,0 h -0.734 c -0.17,0 -0.254,-0.103 -0.254,-0.306 v -7.936 c 0,-0.152 -0.085,-0.228 -0.255,-0.228 h -7.099 c -0.169,0 -0.252,0.076 -0.252,0.228 v 7.936 C -8.594,-0.103 -8.688,0 -8.874,0 h -0.735 c -0.17,0 -0.254,-0.103 -0.254,-0.306 v -16.708 c 0,-0.205 0.084,-0.304 0.254,-0.304 h 0.735 c 0.186,0 0.28,0.099 0.28,0.304 v 7.175 c 0,0.15 0.083,0.229 0.252,0.229 h 7.099 c 0.17,0 0.255,-0.079 0.255,-0.229 v -7.175 c 0,-0.205 0.084,-0.304 0.254,-0.304 H 0 c 0.187,0 0.279,0.099 0.279,0.304 V -0.306 C 0.279,-0.103 0.187,0 0,0" /></g><g
           transform="translate(48.8926,22.5177)"
           id="g60"><path
             id="path62"
             style="fill:#222222;fill-opacity:1;fill-rule:nonzero;stroke:none"
             d="m 0,0 c 0,-0.796 -0.209,-1.407 -0.622,-1.839 -0.414,-0.43 -1.01,-0.645 -1.787,-0.645 h -1.978 c -0.777,0 -1.37,0.215 -1.774,0.645 -0.405,0.432 -0.61,1.043 -0.61,1.839 v 5.678 c 0,0.795 0.205,1.409 0.61,1.839 0.404,0.431 0.997,0.647 1.774,0.647 h 1.978 c 0.777,0 1.373,-0.216 1.787,-0.647 C -0.209,7.087 0,6.473 0,5.678 Z m -2.309,9.303 h -2.18 c -1.098,0 -1.964,-0.321 -2.598,-0.963 -0.634,-0.641 -0.95,-1.519 -0.95,-2.635 v -5.73 c 0,-1.116 0.316,-1.995 0.95,-2.637 0.634,-0.644 1.5,-0.964 2.598,-0.964 h 2.18 c 1.1,0 1.97,0.32 2.614,0.964 0.64,0.642 0.962,1.521 0.962,2.637 v 5.73 c 0,1.116 -0.322,1.994 -0.962,2.635 -0.644,0.642 -1.514,0.963 -2.614,0.963" /></g><g
           transform="translate(61.4669,31.8204)"
           id="g64"><path
             id="path66"
             style="fill:#222222;fill-opacity:1;fill-rule:nonzero;stroke:none"
             d="m 0,0 h -0.733 c -0.188,0 -0.281,-0.1 -0.281,-0.302 v -9.001 c 0,-0.796 -0.233,-1.407 -0.697,-1.839 -0.466,-0.429 -1.103,-0.645 -1.914,-0.645 h -1.649 c -0.777,0 -1.368,0.218 -1.775,0.659 -0.404,0.439 -0.608,1.057 -0.608,1.85 v 8.976 C -7.657,-0.1 -7.751,0 -7.935,0 h -0.736 c -0.168,0 -0.253,-0.1 -0.253,-0.302 v -9.026 c 0,-1.115 0.312,-1.995 0.937,-2.637 0.626,-0.643 1.48,-0.964 2.562,-0.964 h 1.673 c 1.317,0 2.197,0.439 2.636,1.32 h 0.102 v -1.015 c 0,-0.205 0.093,-0.305 0.281,-0.305 H 0 c 0.169,0 0.255,0.1 0.255,0.305 V -0.302 C 0.255,-0.1 0.169,0 0,0" /></g><g
           transform="translate(69.962,25.5333)"
           id="g68"><path
             id="path70"
             style="fill:#222222;fill-opacity:1;fill-rule:nonzero;stroke:none"
             d="m 0,0 -3.171,1.269 c -0.542,0.186 -0.941,0.413 -1.205,0.684 -0.262,0.271 -0.393,0.643 -0.393,1.115 v 0.585 c 0,0.405 0.174,0.759 0.52,1.064 0.348,0.304 0.866,0.457 1.56,0.457 H 1.29 c 0.187,0 0.28,0.084 0.28,0.252 V 6.01 c 0,0.187 -0.093,0.277 -0.28,0.277 h -4.104 c -2.183,0 -3.274,-0.988 -3.274,-2.966 0,-0.811 0.182,-1.446 0.546,-1.899 0.363,-0.458 0.976,-0.856 1.839,-1.192 l 3.168,-1.218 c 0.948,-0.338 1.421,-1.057 1.421,-2.155 v -0.609 c 0,-1.183 -0.762,-1.773 -2.282,-1.773 h -4.285 c -0.186,0 -0.28,-0.086 -0.28,-0.254 v -0.583 c 0,-0.188 0.094,-0.28 0.28,-0.28 h 4.411 c 1.183,0 2.058,0.244 2.624,0.736 0.566,0.49 0.85,1.242 0.85,2.256 0,1.013 -0.147,1.804 -0.442,2.371 C 1.466,-0.713 0.877,-0.285 0,0" /></g><g
           transform="translate(82.2061,25.9405)"
           id="g72"><path
             id="path74"
             style="fill:#222222;fill-opacity:1;fill-rule:nonzero;stroke:none"
             d="m 0,0 c 0,-0.152 -0.075,-0.23 -0.227,-0.23 h -6.315 c -0.152,0 -0.228,0.078 -0.228,0.23 v 2.255 c 0,0.795 0.204,1.409 0.61,1.839 0.405,0.431 0.996,0.647 1.773,0.647 h 2.005 c 0.778,0 1.368,-0.216 1.773,-0.647 C -0.202,3.664 0,3.05 0,2.255 Z m -2.307,5.88 h -2.18 c -1.1,0 -1.966,-0.32 -2.6,-0.963 -0.632,-0.641 -0.95,-1.519 -0.95,-2.635 v -5.73 c 0,-1.115 0.318,-1.995 0.95,-2.637 0.634,-0.644 1.5,-0.964 2.6,-0.964 h 5.299 c 0.185,0 0.279,0.092 0.279,0.279 v 0.584 c 0,0.185 -0.094,0.279 -0.279,0.279 h -5.199 c -0.777,0 -1.368,0.216 -1.773,0.645 -0.406,0.432 -0.61,1.043 -0.61,1.839 v 1.951 c 0,0.154 0.076,0.229 0.228,0.229 h 7.506 c 0.202,0 0.305,0.101 0.305,0.305 v 3.22 C 1.269,3.398 0.945,4.276 0.305,4.917 -0.339,5.56 -1.21,5.88 -2.307,5.88" /></g><g
           transform="translate(98.0264,26.1495)"
           id="g76"><path
             id="path78"
             style="fill:#222222;fill-opacity:1;fill-rule:nonzero;stroke:none"
             d="m 0,0 -9.108,5.618 c -0.237,0.125 -0.448,0 -0.448,-0.238 V 5.026 c 0,-0.382 0.109,-0.446 0.259,-0.539 l 8.469,-5.283 -8.469,-5.281 c -0.15,-0.094 -0.259,-0.158 -0.259,-0.539 v -0.355 c 0,-0.241 0.211,-0.364 0.448,-0.241 L 0,-1.591 c 0.202,0.146 0.309,0.281 0.309,0.61 v 0.183 0.004 0.186 C 0.309,-0.281 0.202,-0.145 0,0" /></g></g></g></g></svg>